<?xml version="1.0" encoding="utf-8"?>
<!-- Generator: Adobe Illustrator 19.2.1, SVG Export Plug-In . SVG Version: 6.00 Build 0)  -->
<svg version="1.1" id="Layer_1" xmlns="http://www.w3.org/2000/svg" xmlns:xlink="http://www.w3.org/1999/xlink" x="0px" y="0px"
	 viewBox="0 0 1010 279" style="enable-background:new 0 0 1010 279;" xml:space="preserve">
<style type="text/css">
	.st0{fill:#231F20;}
</style>
<g>
	<path class="st0" d="M25.9,257.6l-11.4,17.9H2.3l-2.1-89.7h8.6c15,40.9,37.2,79.7,81.5,79.7c31.5,0,47.2-19.4,47.2-48.1
		c0-23.7-11.4-40.9-35-50.9c-20-8.6-33.6-13.6-53.6-23C22.3,131.3,6.6,109.8,6.6,76.1C6.6,35.2,38,5,80.2,5
		c17.9,0,40.8,7.9,53.6,18.7l10.7-17.2h12.9l2.1,87.5h-8.6c-14.3-43.8-31.5-76.8-78-76.8c-10,0-35.8,9.3-35.8,39.5
		c0,23.7,10,36.6,31.5,49.5c17.2,10,35,15.1,50.8,23c28.6,14.4,50.1,30.1,50.1,69.6c0,46.6-35,79.7-82.3,79.7
		C57.4,276.3,36.6,266.9,25.9,257.6 M178.2,183.7c0-47.4,30-91.1,78-91.1c35.8,0,53.6,20.8,53.6,44.5c0,12.9-7.2,21.5-19.3,21.5
		c-7.2,0-20.7-4.3-20.7-19.4c0-15.8,4.3-16.5,4.3-23.7c-2.1-11.5-7.2-13.6-18.6-13.6c-20.7,0-40.1,20.1-40.1,78.2
		c0,46.6,16.5,78.9,46.5,78.9c23.6,0,37.9-12.2,48.6-34.4l7.9,5.7c-12.9,25.1-37.2,45.9-64.4,45.9
		C203.3,276.3,178.2,236.8,178.2,183.7 M339.2,25.1c0-12.9,10-24.4,22.9-24.4c14.3,0,23.6,10,23.6,23c0,13.6-10,25.1-23.6,25.1
		C349.2,48.8,339.2,38,339.2,25.1z M322.7,263.4c5.7-0.7,10.7-1.4,15.7-2.9c6.4-2.2,9.3-9.3,9.3-17.2V132.8
		c-0.7-7.9-3.6-15.1-9.3-19.4c-4.3-2.9-15-7.2-20.7-7.2V99l62.2-4.3l2.1,2.9v143.5c0,7.9,3.6,14.4,9.3,17.9c5,2.9,11.4,4.3,15.7,4.3
		v7.9h-83.7v-7.9h-0.6V263.4z M508,160.7c0-28-5-58.8-29.3-58.8c-20.7,0-35.8,23.7-36.5,60.3L508,160.7L508,160.7z M405,183
		c0-45.9,27.2-90.4,73.7-90.4c47.9,0,65.8,34.4,65.8,73.9v3.6H442.2v4.3c0,49.5,14.3,84.7,50.1,84.7c25.8,0,35-10.8,47.9-34.4
		l7.2,4.3c-12.2,27.3-35.8,46.6-64.4,46.6C430,276.3,405,233.9,405,183L405,183z"/>
	<path class="st0" d="M546.6,263.4c5.7-0.7,10.7-1.4,15.7-2.9c6.4-2.2,9.3-8.6,9.3-17.2V132.8c-0.7-7.9-3.6-15.8-9.3-20.1
		c-3.6-2.9-11.4-5.7-17.2-6.5V99l57.9-4.3l2.9,2.9v25.8h0.7c13.6-14.4,26.5-31.6,55.1-31.6c31.5,0,46.5,24.4,46.5,61v89
		c0,8.6,2.9,14.4,8.6,17.2c5,2.2,9.3,3.6,15.7,4.3v7.9h-84.4v-7.9c5.7-0.7,11.4-1.4,15.7-2.9c6.4-2.2,9.3-8.6,9.3-17.2v-91.1
		c0-26.6-12.9-40.9-27.2-40.9c-23.6,0-37.2,15.8-40.8,25.1v104.8c0,8.6,2.9,14.4,8.6,17.2c4.3,2.9,10.7,4.3,15.7,4.3v7.9h-83.7v-7.2
		L546.6,263.4L546.6,263.4z M726.1,183.7c0-47.4,30-91.1,78-91.1c35.8,0,53.6,20.8,53.6,44.5c0,12.9-7.2,21.5-19.3,21.5
		c-7.2,0-20.7-4.3-20.7-19.4c0-15.8,4.3-16.5,4.3-23.7c-2.1-11.5-7.2-13.6-18.6-13.6c-20.7,0-40.1,20.1-40.1,78.2
		c0,46.6,16.5,78.9,46.5,78.9c23.6,0,37.9-12.2,48.6-34.4l7.9,5.7c-12.9,25.1-37.2,45.9-64.4,45.9
		C751.2,276.3,726.1,236.8,726.1,183.7 M970,160.7c0-28-5-58.8-29.3-58.8c-20.7,0-35.8,23.7-36.5,60.3L970,160.7L970,160.7z
		 M867,183c0-45.9,27.2-90.4,73.7-90.4c47.9,0,65.8,34.4,65.8,73.9v3.6H904.2v4.3c0,49.5,14.3,84.7,50.1,84.7
		c25.8,0,35-10.8,47.9-34.4l7.2,4.3c-12.2,27.3-35.8,46.6-64.4,46.6C891.4,276.3,867,233.9,867,183L867,183z"/>
</g>
</svg>
